<?xml version="1.0" encoding="UTF-8"?>
<svg xmlns="http://www.w3.org/2000/svg" font-family="ConsolasFallback,Consolas,monospace" width="1100px" height="585px" font-size="16px">
<style>
@font-face {
  src: local("Consolas"), local("Consolas Bold");
  font-family: "ConsolasFallback";
  font-display: swap;
  -webkit-size-adjust: 109%;
  size-adjust: 109%;
}
text, tspan { white-space: pre; }
.bg { fill: #020403; }
.terminal { fill: #050a07; stroke: #39ff14; stroke-width: 2; }
.topbar { fill: #07130c; }
.grid { stroke: #123c20; stroke-width: 1; opacity: 0.42; }
.scan { fill: #39ff14; opacity: 0.045; }
.title { fill: #39ff14; font-size: 48px; font-weight: 700; letter-spacing: 0; }
.prompt { fill: #00ffd5; font-size: 15px; }
.muted { fill: #5bff75; opacity: 0.74; }
.row-bg { fill: #06110a; stroke: #174d24; stroke-width: 1; }
.icon-box { fill: #0a1f10; stroke: #39ff14; stroke-width: 1.5; }
.icon-text { fill: #39ff14; font-size: 12px; font-weight: 700; }
.label { fill: #94ff9f; font-weight: 700; }
.value { fill: #d9ffe1; }
.chip-box { fill: #08190e; stroke: #39ff14; stroke-width: 1; }
.chip-text { fill: #d9ffe1; font-size: 13px; font-weight: 700; }
.edge { stroke: #39ff14; stroke-width: 2; opacity: 0.78; }
.hot { fill: #39ff14; }
</style>
<rect width="1100" height="585" class="bg"/>
<line x1="70" y1="0" x2="70" y2="585" class="grid"/><line x1="150" y1="0" x2="150" y2="585" class="grid"/><line x1="230" y1="0" x2="230" y2="585" class="grid"/><line x1="310" y1="0" x2="310" y2="585" class="grid"/><line x1="390" y1="0" x2="390" y2="585" class="grid"/><line x1="470" y1="0" x2="470" y2="585" class="grid"/><line x1="550" y1="0" x2="550" y2="585" class="grid"/><line x1="630" y1="0" x2="630" y2="585" class="grid"/><line x1="710" y1="0" x2="710" y2="585" class="grid"/><line x1="790" y1="0" x2="790" y2="585" class="grid"/><line x1="870" y1="0" x2="870" y2="585" class="grid"/><line x1="950" y1="0" x2="950" y2="585" class="grid"/><line x1="1030" y1="0" x2="1030" y2="585" class="grid"/>
<line x1="0" y1="70" x2="1100" y2="70" class="grid"/><line x1="0" y1="134" x2="1100" y2="134" class="grid"/><line x1="0" y1="198" x2="1100" y2="198" class="grid"/><line x1="0" y1="262" x2="1100" y2="262" class="grid"/><line x1="0" y1="326" x2="1100" y2="326" class="grid"/><line x1="0" y1="390" x2="1100" y2="390" class="grid"/><line x1="0" y1="454" x2="1100" y2="454" class="grid"/><line x1="0" y1="518" x2="1100" y2="518" class="grid"/>
<rect x="18" y="18" width="1064" height="549" rx="18" class="terminal"/>
<rect x="18" y="18" width="1064" height="50" rx="18" class="topbar"/>
<circle cx="48" cy="43" r="6" fill="#39ff14"/>
<circle cx="70" cy="43" r="6" fill="#00ffd5"/>
<circle cx="92" cy="43" r="6" fill="#ff2079"/>
<text x="122" y="49" class="prompt">profile://delusionofgrandeur/mainframe</text>
<path d="M36 88 H1064 M36 535 H1064" class="edge"/>
<text x="48" y="136" class="title">spy</text>
<text x="171" y="134" class="prompt">@delusionofgrandeur :: cyberpunk profile card</text>
<text x="48" y="164" class="muted">single-panel layout / dynamic github stats / discord-ready status row</text>

  <g class="row">
    <rect x="30" y="185" width="1040" height="46" rx="8" class="row-bg"/>
    <rect x="48" y="193" width="30" height="30" rx="7" class="icon-box"/>
    <text x="63" y="214" text-anchor="middle" class="icon-text">@</text>
    <text x="98" y="214" class="label">HANDLE</text>
    <text x="315" y="214" class="value">spy / @delusionofgrandeur</text>
  </g>

  <g class="row">
    <rect x="30" y="237" width="1040" height="46" rx="8" class="row-bg"/>
    <rect x="48" y="245" width="30" height="30" rx="7" class="icon-box"/>
    <text x="63" y="266" text-anchor="middle" class="icon-text">FX</text>
    <text x="98" y="266" class="label">FOCUS</text>
    <text x="315" y="266" class="value">security automation, CLI tooling, offline AI apps</text>
  </g>

  <g class="row">
    <rect x="30" y="289" width="1040" height="46" rx="8" class="row-bg"/>
    <rect x="48" y="297" width="30" height="30" rx="7" class="icon-box"/>
    <text x="63" y="318" text-anchor="middle" class="icon-text">ST</text>
    <text x="98" y="318" class="label">STACK</text>

  <rect x="315" y="301" width="46" height="30" rx="6" class="chip-box"/>
  <text x="338" y="322" text-anchor="middle" class="chip-text">TS</text>
  <rect x="371" y="301" width="46" height="30" rx="6" class="chip-box"/>
  <text x="394" y="322" text-anchor="middle" class="chip-text">JS</text>
  <rect x="427" y="301" width="46" height="30" rx="6" class="chip-box"/>
  <text x="450" y="322" text-anchor="middle" class="chip-text">PY</text>
  <rect x="483" y="301" width="46" height="30" rx="6" class="chip-box"/>
  <text x="506" y="322" text-anchor="middle" class="chip-text">RN</text>
  <rect x="539" y="301" width="46" height="30" rx="6" class="chip-box"/>
  <text x="562" y="322" text-anchor="middle" class="chip-text">SB</text>
  </g>

  <g class="row">
    <rect x="30" y="341" width="1040" height="46" rx="8" class="row-bg"/>
    <rect x="48" y="349" width="30" height="30" rx="7" class="icon-box"/>
    <text x="63" y="370" text-anchor="middle" class="icon-text">CB</text>
    <text x="98" y="370" class="label">CURRENTLY BUILDING</text>
    <text x="315" y="370" class="value">coursera-scraper: CLI | RepoSecAudit: scanner | sors-whispercore: app</text>
  </g>

  <g class="row">
    <rect x="30" y="393" width="1040" height="46" rx="8" class="row-bg"/>
    <rect x="48" y="401" width="30" height="30" rx="7" class="icon-box"/>
    <text x="63" y="422" text-anchor="middle" class="icon-text">GH</text>
    <text x="98" y="422" class="label">GITHUB STATS</text>
    <text x="315" y="422" class="value">repos 6 | originals 4 | stars 4 | forks 0 | followers 2 | since 2025-04-17</text>
  </g>

  <g class="row">
    <rect x="30" y="445" width="1040" height="46" rx="8" class="row-bg"/>
    <rect x="48" y="453" width="30" height="30" rx="7" class="icon-box"/>
    <text x="63" y="474" text-anchor="middle" class="icon-text">DM</text>
    <text x="98" y="474" class="label">CONTACT</text>
    <text x="315" y="474" class="value">GitHub: github.com/delusionofgrandeur | Discord: discord.com/users/1477...</text>
  </g>

  <g class="row">
    <rect x="30" y="497" width="1040" height="46" rx="8" class="row-bg"/>
    <rect x="48" y="505" width="30" height="30" rx="7" class="icon-box"/>
    <text x="63" y="526" text-anchor="middle" class="icon-text">TL</text>
    <text x="98" y="526" class="label">FAVORITE TOOLS</text>

  <rect x="315" y="509" width="67" height="30" rx="6" class="chip-box"/>
  <text x="348.5" y="530" text-anchor="middle" class="chip-text">CODEX</text>
  <rect x="392" y="509" width="49" height="30" rx="6" class="chip-box"/>
  <text x="416.5" y="530" text-anchor="middle" class="chip-text">GHA</text>
  <rect x="451" y="509" width="46" height="30" rx="6" class="chip-box"/>
  <text x="474" y="530" text-anchor="middle" class="chip-text">PW</text>
  <rect x="507" y="509" width="58" height="30" rx="6" class="chip-box"/>
  <text x="536" y="530" text-anchor="middle" class="chip-text">EXPO</text>
  <rect x="575" y="509" width="46" height="30" rx="6" class="chip-box"/>
  <text x="598" y="530" text-anchor="middle" class="chip-text">GH</text>
  </g>
<text x="48" y="558" class="prompt">$ status --discord</text>
<text x="245" y="558" class="value">Discord ID linked | live status pending Lanyard visibility</text>
<text x="810" y="558" class="muted">updated 2026-05-11 16:18 UTC</text>
<rect x="18" y="92" width="1064" height="2" class="scan"/><rect x="18" y="140" width="1064" height="2" class="scan"/><rect x="18" y="188" width="1064" height="2" class="scan"/><rect x="18" y="236" width="1064" height="2" class="scan"/><rect x="18" y="284" width="1064" height="2" class="scan"/><rect x="18" y="332" width="1064" height="2" class="scan"/><rect x="18" y="380" width="1064" height="2" class="scan"/><rect x="18" y="428" width="1064" height="2" class="scan"/><rect x="18" y="476" width="1064" height="2" class="scan"/>
</svg>